<?xml version="1.0" standalone="no"?>
<!DOCTYPE svg PUBLIC "-//W3C//DTD SVG 20010904//EN"
 "http://www.w3.org/TR/2001/REC-SVG-20010904/DTD/svg10.dtd">
<svg version="1.0" xmlns="http://www.w3.org/2000/svg"
 width="233.000000pt" height="208.000000pt" viewBox="0 0 233.000000 208.000000"
 preserveAspectRatio="xMidYMid meet">

<g transform="translate(0.000000,208.000000) scale(0.100000,-0.100000)"
 fill="#FFFFFF" stroke="none">
<path d="M1005 1469 l-148 -261 -33 54 c-51 82 -51 83 -57 78 -26 -24 -314
-466 -306 -469 5 -1 12 -1 13 0 2 2 44 66 95 142 51 75 95 137 97 137 3 0 16
-8 30 -17 23 -15 28 -15 52 -1 22 13 31 14 44 4 14 -10 9 -24 -49 -126 -75
-132 -79 -140 -65 -140 5 0 80 125 167 278 87 152 160 279 162 282 2 2 13 -1
23 -8 25 -15 53 -15 67 -1 9 9 19 9 42 0 23 -10 34 -10 51 -1 18 9 28 9 46 -1
20 -10 29 -10 49 1 14 7 27 11 28 9 2 -2 75 -129 162 -281 135 -239 175 -300
175 -272 0 3 -56 104 -125 225 -69 120 -125 223 -125 228 0 19 20 22 42 7 19
-14 24 -14 49 1 25 15 29 15 52 0 22 -14 26 -14 46 0 12 8 24 13 25 12 2 -2
65 -111 141 -241 116 -202 155 -260 155 -233 0 9 -382 670 -395 684 -11 11
-20 0 -54 -67 -23 -45 -49 -95 -60 -112 l-19 -31 -107 190 c-59 105 -111 191
-115 191 -4 0 -74 -117 -155 -261z m228 104 c64 -114 65 -117 46 -131 -18 -12
-23 -12 -40 4 -19 17 -22 17 -48 1 -25 -14 -30 -15 -49 -1 -19 13 -25 13 -50
0 -28 -14 -62 -7 -62 15 0 13 122 229 130 229 3 0 36 -53 73 -117z m331 -134
c32 -58 34 -68 21 -79 -12 -10 -20 -9 -41 5 -23 15 -27 15 -50 0 -18 -12 -29
-13 -44 -5 -27 14 -26 19 16 102 41 81 40 82 98 -23z m-756 -193 c34 -58 36
-64 23 -84 -6 -10 -13 -11 -34 -1 -22 10 -31 9 -51 -4 -23 -15 -26 -15 -45 1
l-21 17 41 63 c23 34 44 62 48 62 3 0 21 -24 39 -54z"/>
<path d="M813 1588 c-28 -31 -35 -60 -23 -93 13 -35 38 -54 68 -55 27 0 26 -3
3 44 -16 30 -17 43 -9 67 5 16 14 32 19 35 17 10 9 24 -14 24 -13 0 -33 -10
-44 -22z m22 -64 c0 -63 0 -64 -17 -43 -22 26 -23 58 -2 87 8 12 16 22 17 22
1 0 2 -29 2 -66z"/>
<path d="M1085 1005 c-16 -13 -26 -27 -22 -31 4 -4 18 3 32 16 25 23 33 22 73
-6 31 -23 28 0 -4 25 -34 26 -42 26 -79 -4z"/>
<path d="M1396 1004 c-36 -32 -27 -43 12 -14 l30 23 28 -22 c36 -29 46 -16 11
15 -35 30 -45 30 -81 -2z"/>
<path d="M1242 967 c-31 -33 -27 -42 8 -17 29 20 32 21 55 6 38 -25 53 -18 20
9 -37 31 -56 31 -83 2z"/>
<path d="M1085 945 c-38 -31 -26 -44 13 -15 l30 23 28 -22 c36 -29 46 -16 11
15 -35 30 -44 30 -82 -1z"/>
<path d="M1396 944 c-36 -32 -27 -43 12 -14 l30 23 28 -22 c36 -29 46 -16 11
15 -35 30 -45 30 -81 -2z"/>
<path d="M1242 907 c-31 -33 -27 -42 8 -17 29 20 32 21 55 6 38 -25 53 -18 20
9 -37 31 -56 31 -83 2z"/>
<path d="M1085 885 c-36 -30 -26 -45 11 -16 l27 21 33 -21 c40 -24 46 -10 8
20 -34 26 -42 26 -79 -4z"/>
<path d="M1395 880 c-34 -35 -27 -39 15 -9 l28 22 28 -22 c36 -29 46 -16 11
15 -36 31 -47 30 -82 -6z"/>
<path d="M1123 820 c0 -30 2 -43 4 -27 2 15 2 39 0 55 -2 15 -4 2 -4 -28z"/>
<path d="M1242 847 c-31 -33 -27 -42 8 -17 29 20 32 21 55 6 38 -25 53 -18 20
9 -37 31 -56 31 -83 2z"/>
<path d="M1430 820 c0 -32 4 -49 10 -45 6 3 10 24 10 45 0 21 -4 42 -10 45 -6
4 -10 -13 -10 -45z"/>
<path d="M1270 800 c0 -16 5 -30 10 -30 6 0 10 14 10 30 0 17 -4 30 -10 30 -5
0 -10 -13 -10 -30z"/>
<path d="M520 710 c0 -7 226 -10 659 -10 429 0 662 3 666 10 4 7 -218 10 -659
10 -437 0 -666 -3 -666 -10z"/>
<path d="M625 540 c4 -6 202 -10 561 -10 363 0 554 3 554 10 0 7 -194 10 -561
10 -371 0 -558 -3 -554 -10z"/>
<path d="M830 370 c0 -6 123 -10 350 -10 227 0 350 4 350 10 0 6 -123 10 -350
10 -227 0 -350 -4 -350 -10z"/>
<path d="M1000 200 c0 -6 67 -10 180 -10 113 0 180 4 180 10 0 6 -67 10 -180
10 -113 0 -180 -4 -180 -10z"/>
</g>
</svg>
