<?xml version="1.0" standalone="no"?>
<!DOCTYPE svg PUBLIC "-//W3C//DTD SVG 20010904//EN"
 "http://www.w3.org/TR/2001/REC-SVG-20010904/DTD/svg10.dtd">
<svg version="1.0" xmlns="http://www.w3.org/2000/svg"
 width="642.000000pt" height="151.000000pt" viewBox="0 0 642.000000 151.000000"
 preserveAspectRatio="xMidYMid meet">

<g transform="translate(0.000000,151.000000) scale(0.100000,-0.100000)"
fill="#FFFFFF" stroke="none">
<path d="M683 1409 c-10 -9 -13 -65 -13 -206 0 -168 2 -194 16 -200 25 -9 34
16 34 100 0 58 3 78 12 75 7 -3 34 -40 60 -84 53 -88 73 -108 88 -84 6 10 3
24 -9 45 -9 16 -30 51 -45 77 l-28 48 26 10 c15 5 38 22 51 36 42 45 30 135
-22 169 -33 22 -154 31 -170 14z m145 -57 c16 -12 24 -29 24 -52 1 -45 -30
-70 -88 -70 l-44 0 0 70 0 70 43 0 c25 0 51 -8 65 -18z"/>
<path d="M2352 1408 c-14 -14 -17 -375 -3 -397 5 -8 16 -11 25 -8 14 6 16 32
16 200 0 149 -3 197 -13 206 -10 8 -17 7 -25 -1z"/>
<path d="M3623 1408 c-38 -10 -70 -48 -79 -93 -10 -53 18 -88 98 -124 83 -37
103 -66 71 -109 -37 -50 -106 -38 -121 21 -10 37 -37 48 -47 18 -10 -32 22
-87 62 -106 69 -33 143 1 163 74 16 57 -11 99 -87 136 -33 17 -68 36 -77 44
-51 44 31 125 89 87 13 -8 26 -29 30 -46 4 -20 13 -30 25 -30 38 0 31 57 -11
99 -31 32 -69 41 -116 29z"/>
<path d="M1005 1251 c-91 -55 -93 -168 -5 -228 85 -59 201 5 202 111 2 103
-111 170 -197 117z m121 -55 c57 -48 22 -146 -52 -146 -41 0 -82 34 -90 76 -4
24 0 37 21 62 34 40 81 43 121 8z"/>
<path d="M1316 1251 c-41 -28 -66 -70 -66 -116 0 -97 108 -166 190 -121 21 12
26 12 36 -2 6 -9 18 -13 28 -9 14 5 16 25 16 132 0 107 -2 127 -16 132 -10 3
-22 0 -28 -8 -9 -13 -15 -13 -36 -2 -36 18 -91 16 -124 -6z m115 -44 c45 -34
50 -93 13 -131 -45 -45 -114 -31 -139 27 -24 58 17 117 80 117 16 0 37 -6 46
-13z"/>
<path d="M1610 1133 c0 -123 2 -134 18 -131 14 3 18 18 22 94 5 98 17 124 56
124 40 0 54 -35 54 -133 0 -79 2 -88 18 -85 14 3 18 18 22 94 5 98 17 124 56
124 40 0 54 -35 54 -133 0 -79 2 -88 18 -85 15 3 17 17 20 106 3 102 3 103
-27 132 -33 34 -82 40 -118 15 -18 -13 -25 -13 -49 0 -16 7 -55 13 -86 13
l-58 -1 0 -134z"/>
<path d="M2072 1249 c-143 -92 -10 -318 135 -229 68 41 89 114 53 179 -39 69
-123 91 -188 50z m119 -42 c22 -17 39 -51 39 -80 0 -36 -46 -77 -87 -77 -78 0
-115 96 -57 148 28 24 79 29 105 9z"/>
<path d="M2525 1251 c-93 -56 -90 -187 5 -236 87 -45 193 21 193 120 0 102
-113 168 -198 116z m121 -55 c37 -31 38 -84 4 -121 -50 -53 -144 -15 -144 58
0 77 82 114 140 63z"/>
<path d="M2836 1251 c-41 -28 -66 -70 -66 -116 0 -99 105 -164 190 -120 27 14
30 14 30 0 0 -30 -21 -57 -55 -71 -39 -16 -59 -11 -98 24 -25 24 -28 25 -44
10 -15 -16 -14 -19 19 -52 32 -32 42 -36 88 -36 61 0 100 23 124 74 24 50 24
294 0 303 -10 3 -22 0 -28 -8 -9 -13 -15 -13 -36 -2 -36 18 -91 16 -124 -6z
m115 -44 c45 -34 50 -93 13 -131 -55 -55 -144 -18 -144 59 0 66 81 111 131 72z"/>
<path d="M3095 1258 c-3 -8 14 -62 39 -121 l45 -107 -24 -57 c-20 -50 -22 -60
-9 -73 9 -9 17 -11 23 -5 15 17 141 333 141 355 0 15 -5 20 -17 18 -12 -2 -30
-34 -54 -91 l-36 -87 -34 87 c-34 85 -61 115 -74 81z"/>
<path d="M3857 1263 c-4 -3 -7 -89 -7 -190 0 -159 2 -184 16 -190 24 -9 34 15
34 84 l0 62 35 -15 c47 -19 82 -18 122 7 41 25 63 66 63 114 0 100 -103 165
-190 120 -25 -13 -29 -13 -34 0 -6 16 -28 20 -39 8z m187 -65 c57 -52 20 -148
-56 -148 -78 1 -116 89 -62 144 34 33 83 35 118 4z"/>
<path d="M4235 1251 c-43 -26 -67 -66 -67 -116 -2 -98 104 -165 192 -120 25
13 29 13 34 0 7 -20 32 -19 40 1 8 20 8 218 0 238 -8 20 -33 21 -40 2 -5 -12
-10 -12 -39 0 -46 19 -84 18 -120 -5z m123 -54 c36 -38 38 -78 7 -115 -20 -24
-35 -32 -60 -32 -81 0 -121 95 -61 146 36 31 85 32 114 1z"/>
<path d="M4525 1252 c-9 -23 -5 -226 4 -241 5 -8 16 -11 25 -8 13 5 16 23 16
100 0 93 8 117 38 117 8 0 20 -7 27 -17 14 -19 45 -11 45 12 0 8 -9 24 -20 35
-24 24 -126 26 -135 2z"/>
<path d="M4735 1262 c-3 -3 -5 -61 -5 -129 0 -102 3 -125 15 -130 9 -3 19 -2
23 2 4 3 9 52 12 108 5 94 7 102 26 105 11 2 27 -4 34 -13 32 -38 60 -1 29 39
-17 22 -27 25 -75 24 -30 -1 -56 -4 -59 -6z"/>
<path d="M4985 1251 c-91 -55 -93 -168 -5 -228 85 -59 201 5 202 111 2 103
-111 170 -197 117z m121 -55 c57 -48 22 -146 -52 -146 -41 0 -82 34 -90 76 -4
24 0 37 21 62 34 40 81 43 121 8z"/>
<path d="M5218 1258 c-3 -7 18 -68 45 -136 37 -92 54 -122 66 -120 9 2 30 37
50 86 19 46 37 79 42 75 4 -4 21 -43 39 -86 24 -57 37 -77 49 -75 18 4 114
235 106 256 -8 22 -35 13 -46 -15 -5 -16 -21 -59 -36 -97 l-26 -69 -32 85
c-17 46 -35 89 -39 96 -17 28 -36 8 -66 -70 -18 -46 -35 -87 -39 -91 -5 -4
-21 27 -36 70 -15 43 -32 84 -38 91 -12 16 -34 16 -39 0z"/>
<path d="M2594 726 c-51 -23 -66 -90 -31 -135 19 -23 60 -33 109 -26 47 7 48
8 48 41 0 32 -2 34 -32 33 -18 -1 -25 -3 -15 -6 25 -7 21 -42 -8 -55 -19 -9
-29 -8 -49 5 -47 31 -54 130 -9 139 21 5 63 -11 63 -24 0 -4 9 -8 20 -8 42 0
13 36 -36 45 -16 3 -43 -1 -60 -9z"/>
<path d="M3550 732 c-54 -17 -67 -77 -24 -111 32 -25 52 -26 82 -5 22 15 30
66 14 91 -10 16 -54 31 -72 25z m44 -34 c22 -31 20 -65 -4 -78 -15 -8 -24 -6
-40 10 -19 19 -27 69 -13 83 13 14 42 6 57 -15z"/>
<path d="M1325 645 c0 -80 1 -85 22 -85 19 0 21 4 16 39 -5 35 -3 40 18 44 24
4 24 4 2 6 -19 1 -23 7 -23 36 0 29 4 35 21 35 11 0 29 -5 40 -10 15 -8 19 -7
19 5 0 12 -12 15 -57 15 l-58 0 0 -85z"/>
<path d="M1545 645 l0 -85 58 0 c39 0 57 4 57 13 0 9 -12 11 -41 9 l-41 -4 4
76 c3 71 2 76 -17 76 -18 0 -20 -6 -20 -85z"/>
<path d="M1751 688 c26 -36 30 -50 26 -85 -4 -39 -3 -43 18 -43 21 0 23 3 18
40 -5 35 -1 48 26 85 25 35 29 45 16 45 -9 0 -14 -4 -11 -9 3 -4 -6 -23 -19
-41 l-25 -34 -17 42 c-14 31 -24 42 -41 42 -22 0 -21 -1 9 -42z"/>
<path d="M2135 645 c0 -82 1 -85 23 -85 20 0 22 3 16 40 l-7 40 42 0 c44 0 49
-8 31 -54 -8 -23 -7 -26 13 -26 21 0 22 4 22 85 0 81 -1 85 -22 85 -20 0 -21
-3 -13 -26 18 -46 13 -54 -31 -54 l-42 0 6 40 c5 36 3 40 -16 40 -21 0 -22 -5
-22 -85z"/>
<path d="M2395 645 c0 -78 2 -85 20 -85 18 0 20 7 20 85 0 78 -2 85 -20 85
-18 0 -20 -7 -20 -85z"/>
<path d="M2825 645 c0 -82 1 -85 23 -85 20 0 22 3 16 40 l-7 40 42 0 c44 0 49
-8 31 -54 -8 -23 -7 -26 13 -26 21 0 22 4 22 85 0 81 -1 85 -22 85 -20 0 -21
-3 -13 -26 18 -46 13 -54 -31 -54 l-42 0 6 40 c5 36 3 40 -16 40 -21 0 -22 -5
-22 -85z"/>
<path d="M3355 645 c0 -81 1 -85 22 -85 19 0 21 4 16 35 -5 34 8 48 22 25 16
-25 92 -53 145 -53 57 0 105 17 95 34 -4 5 -15 3 -28 -6 -32 -22 -115 -19
-156 6 l-33 20 23 25 c19 20 21 29 13 52 -8 24 -15 27 -64 30 l-55 3 0 -86z
m103 47 c5 -30 -14 -52 -44 -52 -21 0 -24 5 -24 41 0 39 1 40 33 37 25 -2 33
-8 35 -26z"/>
<path d="M3788 645 c-25 -59 -32 -85 -23 -85 8 0 15 12 17 28 3 24 8 27 45 30
34 3 42 0 48 -17 3 -12 3 -25 0 -31 -4 -6 5 -10 19 -10 26 0 33 10 19 24 -4 4
-20 38 -34 74 -15 37 -33 68 -41 70 -10 2 -26 -25 -50 -83z m58 30 c19 -45 19
-45 -16 -45 -16 0 -30 4 -30 9 0 13 21 71 26 71 3 0 12 -16 20 -35z"/>
<path d="M4025 645 c0 -52 4 -85 10 -85 7 0 10 27 8 73 l-3 72 29 -62 c16 -35
35 -63 41 -63 6 0 24 28 40 63 l30 62 -3 -72 c-2 -63 0 -73 14 -73 15 0 18 13
21 85 3 82 2 85 -19 85 -13 0 -23 -4 -23 -9 0 -5 -12 -35 -26 -67 l-26 -58
-28 64 c-18 42 -35 66 -47 68 -16 2 -18 -6 -18 -83z"/>
<path d="M4495 645 c0 -78 2 -85 20 -85 19 0 20 5 16 81 -3 81 -3 82 20 77 13
-3 32 -9 42 -13 12 -5 17 -3 17 9 0 13 -11 16 -57 16 l-58 0 0 -85z"/>
<path d="M4636 690 c-14 -36 -19 -40 -51 -40 -24 0 -35 -5 -35 -15 0 -12 4
-13 25 -3 35 16 42 4 22 -37 -14 -30 -15 -35 -2 -35 9 0 15 9 15 23 0 40 22
60 58 52 26 -5 33 -13 38 -41 4 -24 12 -34 25 -34 11 0 19 1 19 3 0 20 -71
163 -82 165 -10 2 -21 -12 -32 -38z m44 -27 c0 -7 -9 -13 -20 -13 -22 0 -23 3
-13 39 6 23 7 23 20 6 7 -11 13 -25 13 -32z"/>
<path d="M4855 645 c0 -81 1 -85 22 -85 19 0 21 4 16 35 -7 46 10 46 39 0 13
-19 31 -35 41 -35 22 0 22 4 -8 35 l-24 27 21 29 c18 24 20 32 10 54 -10 22
-18 25 -64 25 l-53 0 0 -85z m99 53 c15 -25 -3 -52 -38 -56 -24 -3 -26 -1 -26
38 0 39 2 41 26 38 15 -2 32 -11 38 -20z"/>
<path d="M3075 569 c-4 -6 -5 -12 -2 -15 2 -3 7 2 10 11 7 17 1 20 -8 4z"/>
</g>
</svg>
